<svg xmlns="http://www.w3.org/2000/svg" width="720" height="220" viewBox="0 0 720 220" role="img" aria-labelledby="title desc">
  <title id="title">popgenVCF logo</title>
  <desc id="desc">A stylized DNA and variant network beside the popgenVCF wordmark.</desc>
  <defs>
    <linearGradient id="panel" x1="0" y1="0" x2="1" y2="1">
      <stop offset="0" stop-color="#123B4A"/>
      <stop offset="1" stop-color="#0B6B62"/>
    </linearGradient>
    <linearGradient id="helix" x1="0" y1="0" x2="0" y2="1">
      <stop offset="0" stop-color="#69D2C7"/>
      <stop offset="1" stop-color="#D6F36A"/>
    </linearGradient>
  </defs>
  <rect x="10" y="10" width="200" height="200" rx="44" fill="url(#panel)"/>
  <path d="M58 45 C160 72 60 148 162 175" fill="none" stroke="url(#helix)" stroke-width="12" stroke-linecap="round"/>
  <path d="M162 45 C60 72 160 148 58 175" fill="none" stroke="#F2F7F5" stroke-width="9" stroke-linecap="round" opacity=".94"/>
  <g stroke="#F2F7F5" stroke-width="5" opacity=".9">
    <path d="M77 57 L143 57"/>
    <path d="M65 82 L155 82"/>
    <path d="M66 108 L154 108"/>
    <path d="M68 134 L152 134"/>
    <path d="M80 160 L140 160"/>
  </g>
  <g fill="#D6F36A" stroke="#123B4A" stroke-width="3">
    <circle cx="77" cy="57" r="8"/>
    <circle cx="155" cy="82" r="8"/>
    <circle cx="66" cy="108" r="8"/>
    <circle cx="152" cy="134" r="8"/>
    <circle cx="80" cy="160" r="8"/>
  </g>
  <text x="244" y="118" font-family="Inter, Segoe UI, Helvetica, Arial, sans-serif" font-size="70" font-weight="700" fill="#123B4A">popgen</text>
  <text x="493" y="118" font-family="Inter, Segoe UI, Helvetica, Arial, sans-serif" font-size="70" font-weight="700" fill="#0B6B62">VCF</text>
  <text x="248" y="158" font-family="Inter, Segoe UI, Helvetica, Arial, sans-serif" font-size="23" letter-spacing="2.2" fill="#52656B">POPULATION GENOMICS TOOLKIT</text>
</svg>
